<svg width="981" height="124" viewBox="0 0 981 124" fill="none" xmlns="http://www.w3.org/2000/svg">
<path d="M26.1465 123.094C8.96549 123.094 0.375 110.789 0.375 86.1797V34.2949C0.375 11.8275 10.2188 0.59375 29.9062 0.59375C38.0182 0.59375 44.2389 2.23438 48.5684 5.51562C52.8978 8.7513 55.8828 13.4909 57.5234 19.7344C59.1641 25.9779 59.9844 33.5885 59.9844 42.5664H36.4688V31.9023C36.4688 29.3047 36.1042 27.14 35.375 25.4082C34.6914 23.6309 33.2331 22.7422 31 22.7422C28.2201 22.7422 26.3743 23.6764 25.4629 25.5449C24.597 27.4134 24.1641 29.4642 24.1641 31.6973V90.0078C24.1641 93.2435 24.5742 95.8867 25.3945 97.9375C26.2604 99.9427 27.9238 100.945 30.3848 100.945C32.9368 100.945 34.623 99.9427 35.4434 97.9375C36.3092 95.8867 36.7422 93.1979 36.7422 89.8711V72.7129H30.3164V51.9316H59.7109V122H50.0723L45.9707 111.883C41.778 119.357 35.1699 123.094 26.1465 123.094ZM66 122L77.6211 1.6875H118.432L129.848 122H107.084L105.375 102.586H90.8828L89.3789 122H66ZM92.5918 83.377H103.529L98.2656 22.1953H97.1719L92.5918 83.377ZM137.23 122V1.6875H174.145C180.297 1.6875 184.945 3.10026 188.09 5.92578C191.234 8.70573 193.331 12.625 194.379 17.6836C195.473 22.6966 196.02 28.5983 196.02 35.3887C196.02 41.9512 195.176 47.1921 193.49 51.1113C191.85 55.0306 188.728 57.7422 184.125 59.2461C187.908 60.0208 190.551 61.9121 192.055 64.9199C193.604 67.8822 194.379 71.7331 194.379 76.4727V122H170.658V74.9004C170.658 71.3913 169.929 69.2266 168.471 68.4062C167.058 67.5404 164.757 67.1074 161.566 67.1074V122H137.23ZM161.703 46.2578H167.514C170.84 46.2578 172.504 42.6348 172.504 35.3887C172.504 30.6947 172.139 27.6185 171.41 26.1602C170.681 24.7018 169.314 23.9727 167.309 23.9727H161.703V46.2578ZM215.023 122L200.189 1.61914H223.09L231.908 83.5137L239.77 1.61914H262.67L247.836 122H215.023ZM268.617 122V1.6875H291.859V122H268.617ZM311.752 122V24.793H297.465V1.6875H350.102V24.793H335.814V122H311.752ZM410.668 123.436C403.194 123.436 397.315 120.542 393.031 114.754C388.793 108.966 386.674 100.991 386.674 90.8281C386.674 83.582 387.312 77.5664 388.588 72.7812C389.91 67.9961 391.732 64.0085 394.057 60.8184C396.381 57.6283 399.047 54.8483 402.055 52.4785L401.508 51.1113C399.594 46.3717 397.908 41.86 396.449 37.5762C395.036 33.2467 394.33 28.8034 394.33 24.2461C394.33 19.6432 395.31 15.5645 397.27 12.0098C399.229 8.45508 401.941 5.67513 405.404 3.66992C408.913 1.61914 412.924 0.59375 417.436 0.59375C421.902 0.59375 425.958 1.57357 429.604 3.5332C433.295 5.44727 436.234 8.34115 438.422 12.2148C440.609 16.0885 441.703 20.9876 441.703 26.9121C441.703 33.3379 440.495 38.7155 438.08 43.0449C435.71 47.3743 432.133 51.5443 427.348 55.5547L433.91 72.0977C436.599 65.3073 440.473 60.0436 445.531 56.3066L455.033 71.1406C449.747 75.3789 445.326 82.2832 441.771 91.8535L453.803 122H430.561L427.895 115.506C426.117 117.693 423.725 119.562 420.717 121.111C417.755 122.661 414.405 123.436 410.668 123.436ZM415.795 22.127C415.795 23.3118 416.091 25.0664 416.684 27.3906C417.276 29.6693 418.666 33.6341 420.854 39.2852C421.719 38.3737 422.494 36.9382 423.178 34.9785C423.861 33.0189 424.203 30.3301 424.203 26.9121C424.203 23.403 423.77 20.9421 422.904 19.5293C422.084 18.1165 420.99 17.4102 419.623 17.4102C418.301 17.4102 417.322 17.9115 416.684 18.9141C416.091 19.8711 415.795 20.9421 415.795 22.127ZM407.592 93.7676C407.592 101.88 409.893 105.936 414.496 105.936C416.365 105.936 417.868 105.252 419.008 103.885C420.147 102.472 420.922 101.014 421.332 99.5098L409.848 71.5508C408.344 74.7409 407.592 80.3236 407.592 88.2988V93.7676ZM495.297 122V1.6875H527.084C533.738 1.6875 539.001 3.16862 542.875 6.13086C546.794 9.0931 549.597 13.3086 551.283 18.7773C552.969 24.2461 553.812 30.763 553.812 38.3281C553.812 45.6198 553.106 51.9772 551.693 57.4004C550.281 62.778 547.751 66.9479 544.105 69.9102C540.505 72.8724 535.378 74.3535 528.725 74.3535H518.949V122H495.297ZM518.949 52.752H520.316C524.783 52.752 527.517 51.4987 528.52 48.9922C529.522 46.4857 530.023 42.7943 530.023 37.918C530.023 33.3607 529.522 29.8516 528.52 27.3906C527.562 24.8841 525.261 23.6309 521.615 23.6309H518.949V52.752ZM561.469 122V1.6875H598.383C604.535 1.6875 609.184 3.10026 612.328 5.92578C615.473 8.70573 617.569 12.625 618.617 17.6836C619.711 22.6966 620.258 28.5983 620.258 35.3887C620.258 41.9512 619.415 47.1921 617.729 51.1113C616.088 55.0306 612.966 57.7422 608.363 59.2461C612.146 60.0208 614.789 61.9121 616.293 64.9199C617.842 67.8822 618.617 71.7331 618.617 76.4727V122H594.896V74.9004C594.896 71.3913 594.167 69.2266 592.709 68.4062C591.296 67.5404 588.995 67.1074 585.805 67.1074V122H561.469ZM585.941 46.2578H591.752C595.079 46.2578 596.742 42.6348 596.742 35.3887C596.742 30.6947 596.378 27.6185 595.648 26.1602C594.919 24.7018 593.552 23.9727 591.547 23.9727H585.941V46.2578ZM627.094 122V1.6875H650.336V122H627.094ZM674.467 122V82.4199L655.258 1.6875H679.115L685.814 42.4297L692.514 1.6875H716.303L697.162 82.4199V122H674.467ZM715.824 122L727.445 1.6875H768.256L779.672 122H756.908L755.199 102.586H740.707L739.203 122H715.824ZM742.416 83.377H753.354L748.09 22.1953H746.996L742.416 83.377ZM787.055 122V1.6875H811.801L822.875 59.3145V1.6875H846.117V122H822.602L810.57 61.8438V122H787.055ZM885.355 123.094C874.372 123.094 866.443 120.359 861.566 114.891C856.736 109.422 854.32 100.717 854.32 88.7773V77.0195H878.109V92.0586C878.109 94.8385 878.52 97.026 879.34 98.6211C880.206 100.171 881.687 100.945 883.783 100.945C885.971 100.945 887.475 100.307 888.295 99.0312C889.161 97.7552 889.594 95.6589 889.594 92.7422C889.594 89.0508 889.229 85.9746 888.5 83.5137C887.771 81.0072 886.495 78.6374 884.672 76.4043C882.895 74.1257 880.411 71.4824 877.221 68.4746L866.42 58.2207C858.354 50.61 854.32 41.9056 854.32 32.1074C854.32 21.8535 856.69 14.0378 861.43 8.66016C866.215 3.28255 873.119 0.59375 882.143 0.59375C893.171 0.59375 900.987 3.5332 905.59 9.41211C910.238 15.291 912.562 24.2233 912.562 36.209H888.09V27.9375C888.09 26.2969 887.611 25.0208 886.654 24.1094C885.743 23.1979 884.49 22.7422 882.895 22.7422C880.98 22.7422 879.568 23.2891 878.656 24.3828C877.79 25.431 877.357 26.7982 877.357 28.4844C877.357 30.1706 877.813 31.9935 878.725 33.9531C879.636 35.9128 881.436 38.1686 884.125 40.7207L898.002 54.0508C900.782 56.694 903.334 59.4967 905.658 62.459C907.982 65.3757 909.851 68.7936 911.264 72.7129C912.676 76.5866 913.383 81.3262 913.383 86.9316C913.383 98.2337 911.286 107.098 907.094 113.523C902.947 119.904 895.701 123.094 885.355 123.094ZM921.449 122V1.6875H945.375V44.6855H956.723V1.6875H980.648V122H956.723V67.4492H945.375V122H921.449Z" fill="white"/>
</svg>
