<svg width="44" height="78" viewBox="0 0 44 78" fill="none" xmlns="http://www.w3.org/2000/svg">
<g clip-path="url(#clip0_1_39)">
<path d="M18.2555 26.3007C19.5027 24.0887 20.7134 21.855 21.65 19.5564C23.6583 14.6363 25.0788 6.81172 20.3762 3.12949C16.905 0.405296 11.2107 4.36731 9.87584 7.62232C7.78294 12.6978 11.863 19.2286 14.1972 23.4976C14.7498 24.503 15.3023 25.5085 15.862 26.5018C14.3806 29.2162 12.853 31.9114 11.607 34.7418C8.41966 41.9804 9.02438 49.8616 15.5611 55.0101C20.8395 59.1763 28.1082 56.6324 32.759 52.3766C35.2777 55.4543 37.954 58.5438 39.2759 62.3151C41.1857 67.8048 31.9594 76.411 28.7955 69.5461C28.2061 68.2716 26.3237 69.3957 26.9083 70.6509C29.9065 77.1451 37.5052 73.4146 40.5646 68.9411C42.6203 65.9272 41.7178 62.1018 40.3174 59.0825C38.9048 56.056 36.7844 53.2491 34.5599 50.5201C34.8502 50.1581 35.1308 49.7986 35.3896 49.4343C39.2109 43.8922 34.233 33.3904 27.4751 32.9282C25.7528 32.8054 24.131 33.2039 22.7112 33.9537C21.1905 31.4391 19.723 28.8905 18.2919 26.3224L18.2555 26.3007ZM16.5566 23.2432C14.0179 18.6133 8.1823 9.78176 14.2135 5.68328C19.7141 1.93508 21.4895 10.6556 20.9172 14.4403C20.5318 17.0022 19.4136 19.4395 18.317 21.7578C17.9257 22.5784 17.5125 23.3941 17.0872 24.2026C16.9144 23.8852 16.7294 23.5606 16.5566 23.2432ZM29.2206 52.4538C18.9094 59.4565 9.7118 49.1521 12.4419 38.7492C13.3905 35.1482 15.1496 31.8171 17.001 28.5247C18.2642 30.7536 19.5539 32.9655 20.8679 35.1506C17.4611 38.0822 16.2027 43.2773 19.8967 47.0901C20.8712 48.0923 22.4059 46.5298 21.4314 45.5276C18.6998 42.7098 19.6876 39.3463 21.9798 36.9844C24.8703 41.6597 27.94 46.228 31.3173 50.5846C31.3319 50.6016 31.3489 50.6282 31.3635 50.6452C30.722 51.2915 29.998 51.8969 29.206 52.4368L29.2206 52.4538ZM32.4512 38.8C34.9851 42.2245 34.8052 45.7247 32.9821 48.6387C31.295 46.6095 29.6249 44.607 28.2142 42.57C26.6405 40.2956 25.1541 37.9581 23.704 35.601C26.9623 33.6762 30.5495 36.2061 32.4585 38.7879L32.4512 38.8Z" fill="white"/>
</g>
<defs>
<clipPath id="clip0_1_39">
<rect width="73.61" height="26.56" fill="white" transform="translate(17.9922 77.8692) rotate(-104.148)"/>
</clipPath>
</defs>
</svg>
