<svg width="103" height="135" viewBox="0 0 103 135" fill="none" xmlns="http://www.w3.org/2000/svg">
<g clip-path="url(#clip0_1_43)">
<path d="M102.56 46.9422C102.702 42.7293 101.821 38.345 100.188 34.232C97.3622 27.1485 90.0202 18.3228 81.7695 23.1069C81.6984 23.1498 81.6558 23.2069 81.599 23.264C77.0973 15.138 74.4843 7.21199 65.7933 2.52777C58.2242 -1.55665 48.1698 -0.128533 40.6717 3.14186C30.2623 7.69755 22.1394 27.0486 27.2375 38.4878C23.5027 39.9587 20.6341 45.4142 19.5406 48.556C17.4814 54.4827 18.8731 61.0235 20.4068 66.9216C22.3808 74.5192 28.8707 89.086 37.6469 84.1019C37.9309 84.1733 38.2149 84.1876 38.4989 84.1447C46.9912 82.6595 50.3 78.1181 48.6953 69.6208C48.5675 68.9495 48.4397 68.264 48.2976 67.5785C48.3687 67.2644 48.3687 66.9359 48.2124 66.5789C48.1556 66.436 48.0846 66.3075 48.0136 66.1647C46.0965 56.7391 43.1995 45.7855 37.7889 38.145C36.5676 26.9343 35.2469 12.7245 49.9876 11.3535C59.275 10.4967 68.1223 17.2517 70.6501 25.9775C69.9968 26.106 67.7388 29.8619 67.9945 31.6328C68.5483 35.5887 80.3778 60.6379 82.7777 68.3783C83.0333 69.2066 83.8286 69.6779 84.6807 69.4637C85.8025 69.1923 86.7966 68.8638 87.7197 68.464C92.2498 78.1466 98.2994 92.0136 86.2144 98.583C77.637 103.253 66.1057 98.3116 57.7839 95.4983C41.0267 89.8429 21.6565 84.2447 7.21409 97.8689C-2.31479 106.852 -3.06744 123.261 8.6626 130.816C22.1394 139.499 41.7368 134.457 46.5935 118.334C47.1758 116.406 44.1794 115.62 43.5971 117.52C37.0646 139.156 -0.411853 135.228 3.1526 111.222C4.78572 100.24 16.1749 93.4989 26.1867 92.3992C35.8149 91.3424 45.7841 94.7842 54.8017 97.7547C65.8785 101.411 79.4121 107.166 90.2475 99.7112C101.608 91.9137 94.9906 76.7471 90.4037 66.893C91.625 65.9933 98.7113 59.5525 99.0805 59.2812C102.972 56.3107 103.54 51.7407 102.517 46.9422H102.56ZM23.4175 66.1076C22.2956 62.2088 21.6423 58.153 21.6139 54.0971C21.5997 52.0121 23.3038 46.2567 25.7464 43.1577C30.2623 55.6395 30.4328 69.3208 35.8576 81.4741C29.2825 84.4875 24.866 71.1203 23.4175 66.1076ZM38.1013 53.0117C38.2575 53.0117 38.3853 52.9975 38.5273 52.9832C38.3001 54.497 38.1155 56.0251 37.7889 57.5246C37.5759 58.4957 38.2291 59.4811 39.2658 59.4811H40.5723C40.5297 61.5804 40.6575 63.6655 40.1179 65.7506C39.8622 66.7217 40.5865 67.7071 41.5948 67.7071C44.0231 67.7071 44.0373 76.2187 44.1509 78.4751C43.2989 79.3034 42.1912 79.9746 40.7427 80.4744C40.4445 79.5462 39.2516 78.9035 38.3143 79.6747C36.2836 76.5614 34.6789 67.7214 34.338 66.0933C33.4576 61.966 32.7901 57.7817 31.9523 53.6544C31.5262 51.5265 30.7878 49.5129 30.3334 47.742C30.6458 47.7991 30.9866 47.742 31.2848 47.4992C32.2221 46.7851 33.2162 46.1711 34.2102 45.5427V46.1568C34.2102 47.385 35.5167 48.0419 36.5534 47.4992C36.596 47.4706 36.6386 47.4421 36.6812 47.4135C36.7096 48.7417 36.6954 50.0555 36.5534 51.4408C36.4682 52.2406 37.3203 53.0403 38.0871 52.9975L38.1013 53.0117ZM50.0444 8.22596C45.3722 8.29736 40.4019 10.5824 37.5333 14.3383C32.2505 21.2361 33.5144 28.748 34.5227 36.6312C33.273 36.8597 31.7109 37.1739 30.4044 37.7594C27.9334 32.5754 29.7653 25.3062 31.1854 20.2221C33.3724 12.3818 37.9025 7.18343 45.6279 4.49857C53.6798 1.68518 63.1235 3.24182 69.5708 8.81149C74.0441 12.6817 76.018 19.1511 78.7304 24.3923C77.0689 24.7636 75.45 25.2491 73.8879 25.8775C71.3459 15.0524 61.0076 8.0403 50.0728 8.22596H50.0444ZM88.4439 64.6081C87.9611 64.6509 87.5067 64.9365 87.2084 65.3507C86.612 65.6649 85.9872 65.9219 85.3339 66.1219C81.4286 54.5541 73.3198 41.7582 73.5471 29.4049C74.0867 29.1336 74.6547 28.9194 75.2086 28.7052C75.2796 28.8337 75.379 28.9622 75.5068 29.0765C75.947 29.4621 76.3021 29.9191 76.6145 30.4046C76.2737 32.8753 78.0346 35.7458 79.4263 38.1022C82.0251 46.6566 84.6807 55.1396 89.3954 62.8515C89.5374 63.08 89.7078 63.2371 89.8924 63.3656C89.438 63.8369 88.9552 64.251 88.4439 64.6223V64.6081ZM93.9965 59.3526C90.6877 49.927 84.6097 40.1301 84.0274 30.0476C84.0558 30.0476 84.0842 30.0476 84.1126 30.0476C85.4901 29.6192 86.7682 29.2621 88.0179 28.8194C87.8617 29.5763 87.6913 30.3332 87.4783 31.0901C87.1658 32.1755 88.2593 33.3751 89.3812 32.9895C90.3043 32.6753 91.1137 32.404 91.8806 32.0898C91.9516 32.1898 92.0226 32.304 92.1078 32.404C92.1362 33.6607 92.1788 34.9032 92.1078 36.1885C92.0652 37.0454 92.832 37.7309 93.6415 37.7452C94.5078 37.7452 95.1894 37.9308 95.7717 38.2022C96.6521 39.7874 97.5042 41.4868 98.2142 43.2006C98.2568 44.6858 98.0722 46.2139 97.9444 47.3707C97.8308 48.3989 98.5835 48.8559 99.3787 48.8416C98.8391 52.8404 97.135 56.582 93.9965 59.3954V59.3526Z" fill="white"/>
</g>
<defs>
<clipPath id="clip0_1_43">
<rect width="103" height="135" fill="white"/>
</clipPath>
</defs>
</svg>
