<svg width="262" height="86" viewBox="0 0 262 86" fill="none" xmlns="http://www.w3.org/2000/svg">
<path d="M43.1 53.8C41.3 55.6 39.2667 57.6333 37 59.9C34.8 62.1667 32.4667 64.4667 30 66.8C27.5333 69.1333 25.0667 71.4333 22.6 73.7C20.1333 75.9667 17.8 77.9667 15.6 79.7C13.4667 81.4333 11.5333 82.8333 9.8 83.9C8.06667 84.9667 6.7 85.5 5.7 85.5C3.96667 85.5 2.66667 84.9 1.8 83.7C0.933333 82.5 0.5 81.1 0.5 79.5C0.5 78.2333 1.03333 76.2333 2.1 73.5C3.16667 70.7667 4.63333 67.5667 6.5 63.9C8.3 60.2333 10.3667 56.3 12.7 52.1C15.1 47.8333 17.6 43.5667 20.2 39.3C22.8 35.0333 25.4333 30.9333 28.1 27C30.7667 23.0667 33.2667 19.6 35.6 16.6C38 13.5333 40.1333 11.1 42 9.29999C43.9333 7.43333 45.4667 6.49999 46.6 6.49999C47.6 6.49999 48.5 6.83333 49.3 7.49999C50.1 8.16666 50.7 8.96667 51.1 9.9C51.5 10.8333 51.6 11.6333 51.4 12.3C51.2667 12.9667 50.9333 13.5333 50.4 14C49.9333 14.4 49.3333 14.7333 48.6 15C47.8667 15.2667 47.1 15.4333 46.3 15.5C44.9667 17.1667 43.3667 19.3667 41.5 22.1C39.6333 24.7667 37.6333 27.7333 35.5 31C33.3667 34.2667 31.2 37.7 29 41.3C26.8 44.9 24.7333 48.4 22.8 51.8C20.9333 55.2 19.2667 58.3667 17.8 61.3C16.4 64.2333 15.4 66.7 14.8 68.7C15.6667 68.0333 16.9 66.9333 18.5 65.4C20.1 63.8667 21.9 62.1 23.9 60.1C25.9667 58.1 28.1667 55.9333 30.5 53.6C32.8333 51.2 35.1667 48.8333 37.5 46.5C39.9 44.1667 42.2333 41.9333 44.5 39.8C46.7667 37.6 48.8 35.6667 50.6 34C52.4667 32.3333 54.0667 31 55.4 30C56.7333 29 57.6667 28.5 58.2 28.5C59.2 28.5 60.0667 28.8333 60.8 29.5C61.5333 30.1667 61.9 31.0333 61.9 32.1C61.9 33.5 61.5333 35.6 60.8 38.4C60.0667 41.1333 59.2333 44.2 58.3 47.6C57.4333 50.9333 56.6333 54.4 55.9 58C55.1667 61.6 54.8 64.9 54.8 67.9C54.8 70.1667 55 71.6 55.4 72.2C55.8 72.8 56.3333 72.9 57 72.5C57.7333 72.0333 58.5333 71.2333 59.4 70.1C60.3333 68.9 61.3 67.6333 62.3 66.3C64.7667 63.1667 67.5 59.5 70.5 55.3C73.5667 51.1 76.7333 46.7333 80 42.2C83.2667 37.6667 86.5667 33.1667 89.9 28.7C93.2333 24.1667 96.4 20.0333 99.4 16.3C102.4 12.5 105.167 9.3 107.7 6.7C110.233 4.1 112.333 2.4 114 1.6C115.133 1.06666 116.267 1.16666 117.4 1.89999C118.533 2.63333 119.1 3.56666 119.1 4.69999C119.1 5.16666 118.6 6.13333 117.6 7.6C116.667 9 115.433 10.6667 113.9 12.6C112.433 14.4667 110.8 16.5 109 18.7C107.267 20.8333 105.567 22.9 103.9 24.9C102.233 26.9 100.733 28.6667 99.4 30.2C98.0667 31.7333 97.1333 32.8333 96.6 33.5C95.6 34.7 94.1333 36.6333 92.2 39.3C90.2667 41.9 88.0667 44.8667 85.6 48.2C83.1333 51.5333 80.5667 55 77.9 58.6C75.2333 62.2 72.7 65.5667 70.3 68.7C67.9 71.7667 65.7667 74.4333 63.9 76.7C62.0333 78.9 60.7 80.3 59.9 80.9C59.1667 81.4333 58.4 81.8667 57.6 82.2C56.8 82.5333 55.9333 82.7 55 82.7C53.2667 82.7 51.9 82.2 50.9 81.2C49.9 80.2 49.1333 79 48.6 77.6C48.0667 76.1333 47.7 74.6 47.5 73C47.3667 71.3333 47.3 69.9 47.3 68.7C47.3 66.3667 47.4 64.1 47.6 61.9C47.8 59.6333 48.0333 57.4 48.3 55.2C48.6333 51.8667 48.5 50.1 47.9 49.9C47.3 49.7 45.7 51 43.1 53.8ZM101.302 54.3C101.169 54.4333 101.069 54.5667 101.002 54.7C100.936 54.8333 100.836 54.9667 100.702 55.1C99.1023 57.3667 98.3023 59.1 98.3023 60.3C98.369 61.5 98.9357 62.3667 100.002 62.9C101.069 63.3667 102.436 63.5667 104.102 63.5C105.769 63.3667 107.402 63.1 109.002 62.7C111.469 62.1 113.969 61.2667 116.502 60.2C119.036 59.0667 121.536 57.9 124.002 56.7C126.536 55.4333 128.969 54.2 131.302 53C133.636 51.8 135.869 50.7667 138.002 49.9C139.002 49.5667 139.636 49.5333 139.902 49.8C140.169 50 140.402 50.3 140.602 50.7C140.802 51.2333 140.902 51.8 140.902 52.4C140.902 53 140.569 53.5333 139.902 54C138.569 55 136.802 56.1333 134.602 57.4C132.469 58.6667 130.136 59.9667 127.602 61.3C125.069 62.5667 122.436 63.8333 119.702 65.1C117.036 66.3 114.502 67.3333 112.102 68.2C110.169 68.9333 107.969 69.5667 105.502 70.1C103.036 70.6333 100.702 70.7667 98.5023 70.5C96.369 70.2333 94.569 69.4333 93.1023 68.1C91.569 66.7667 90.8023 64.6 90.8023 61.6C90.8023 59.4667 91.3357 57.3 92.4023 55.1C93.469 52.8333 94.9023 50.6333 96.7023 48.5C98.5023 46.3667 100.536 44.3667 102.802 42.5C105.136 40.5667 107.536 38.9 110.002 37.5C112.469 36.0333 114.902 34.9 117.302 34.1C119.702 33.2333 121.869 32.8 123.802 32.8C125.669 32.8 127.402 33.2667 129.002 34.2C130.602 35.0667 131.402 36.5667 131.402 38.7C131.402 39.9 130.936 41.1667 130.002 42.5C129.069 43.7667 127.836 45.0333 126.302 46.3C124.769 47.5667 123.069 48.8 121.202 50C119.336 51.1333 117.469 52.1333 115.602 53C113.736 53.8667 111.969 54.5667 110.302 55.1C108.636 55.5667 107.269 55.8 106.202 55.8C105.336 55.8 104.469 55.6667 103.602 55.4C102.802 55.1333 102.036 54.7667 101.302 54.3ZM108.302 47.9C110.236 47.3 111.969 46.6667 113.502 46C115.102 45.3333 116.436 44.6333 117.502 43.9C118.636 43.1667 119.336 42.5333 119.602 42C119.936 41.4667 119.969 41.1 119.702 40.9C119.436 40.7 118.936 40.6667 118.202 40.8C117.469 40.9333 116.669 41.2667 115.802 41.8C114.669 42.4667 113.469 43.3333 112.202 44.4C110.936 45.4 109.636 46.5667 108.302 47.9ZM161.08 21.2C159.347 23.8 157.914 25.8333 156.78 27.3C155.714 28.7 154.847 29.7333 154.18 30.4C153.514 31.0667 153.014 31.5 152.68 31.7C152.414 31.8333 152.18 31.9 151.98 31.9C151.247 32.0333 150.647 31.9333 150.18 31.6C149.78 31.2 149.58 30.6333 149.58 29.9C149.58 29.5667 149.747 28.9667 150.08 28.1C150.414 27.2333 150.847 26.2667 151.38 25.2C151.914 24.1333 152.48 23.0667 153.08 22C153.747 20.8667 154.347 19.9 154.88 19.1C155.48 18.1667 156.18 17.6333 156.98 17.5C157.847 17.3 158.614 17.3667 159.28 17.7C160.014 18.0333 160.547 18.5333 160.88 19.2C161.28 19.8667 161.347 20.5333 161.08 21.2ZM196.687 61.6C200.553 60 204.087 58.1667 207.287 56.1C210.553 53.9667 213.087 52.2 214.887 50.8C215.82 50.0667 216.62 49.7 217.287 49.7C217.953 49.7 218.487 49.9333 218.887 50.4C219.22 50.7333 219.42 51.2 219.487 51.8C219.62 52.3333 219.487 52.9333 219.087 53.6C218.42 54.7333 217.253 55.9667 215.587 57.3C213.92 58.5667 211.953 59.9 209.687 61.3C207.487 62.6333 205.12 63.9667 202.587 65.3C200.12 66.5667 197.72 67.7 195.387 68.7C193.787 69.4333 192.02 70.0667 190.087 70.6C188.22 71.0667 186.453 71.2333 184.787 71.1C183.12 70.9 181.72 70.3 180.587 69.3C179.453 68.3 178.887 66.6333 178.887 64.3C178.887 63.0333 179.153 61.5667 179.687 59.9C180.22 58.1667 180.953 56.3333 181.887 54.4C180.887 55.4 179.72 56.3667 178.387 57.3C177.12 58.1667 175.787 58.8667 174.387 59.4C173.053 59.8667 171.753 60 170.487 59.8C169.22 59.6 168.153 58.9 167.287 57.7C166.62 56.8333 166.187 55.8 165.987 54.6C165.72 53.4 165.687 52.2333 165.887 51.1C166.087 49.7 166.52 48.2333 167.187 46.7C167.853 45.1667 168.62 43.6667 169.487 42.2C170.42 40.7333 171.42 39.4 172.487 38.2C173.62 37 174.787 36.0333 175.987 35.3C177.853 34.1667 179.62 33.8 181.287 34.2C183.02 34.6 184.153 35.4667 184.687 36.8C185.02 37.7333 185.053 38.7333 184.787 39.8C184.587 40.8667 183.62 41.9667 181.887 43.1C181.02 43.6333 180.153 44.1667 179.287 44.7C178.42 45.1667 177.587 45.7 176.787 46.3C175.987 46.9 175.287 47.6 174.687 48.4C174.153 49.1333 173.753 50.0333 173.487 51.1C173.22 52.2333 173.653 52.8 174.787 52.8C175.92 52.7333 177.353 52.1 179.087 50.9C180.42 49.9667 181.753 48.7667 183.087 47.3C184.487 45.8333 185.92 44.4 187.387 43C188.853 41.6 190.32 40.4333 191.787 39.5C193.32 38.5 194.887 38.0333 196.487 38.1C197.42 38.1667 198.32 38.6 199.187 39.4C200.053 40.1333 200.487 40.9333 200.487 41.8C200.487 42.1333 200.053 42.8333 199.187 43.9C198.32 44.9667 197.287 46.2667 196.087 47.8C194.887 49.2667 193.62 50.8667 192.287 52.6C190.953 54.3333 189.82 56.0333 188.887 57.7C187.553 59.9667 186.987 61.5333 187.187 62.4C187.387 63.2667 187.987 63.7333 188.987 63.8C189.987 63.8 191.22 63.5667 192.687 63.1C194.153 62.5667 195.487 62.0667 196.687 61.6ZM221.713 54.3C221.579 54.4333 221.479 54.5667 221.413 54.7C221.346 54.8333 221.246 54.9667 221.113 55.1C219.513 57.3667 218.713 59.1 218.713 60.3C218.779 61.5 219.346 62.3667 220.413 62.9C221.479 63.3667 222.846 63.5667 224.513 63.5C226.179 63.3667 227.813 63.1 229.413 62.7C231.879 62.1 234.379 61.2667 236.913 60.2C239.446 59.0667 241.946 57.9 244.413 56.7C246.946 55.4333 249.379 54.2 251.713 53C254.046 51.8 256.279 50.7667 258.413 49.9C259.413 49.5667 260.046 49.5333 260.313 49.8C260.579 50 260.813 50.3 261.013 50.7C261.213 51.2333 261.313 51.8 261.313 52.4C261.313 53 260.979 53.5333 260.313 54C258.979 55 257.213 56.1333 255.013 57.4C252.879 58.6667 250.546 59.9667 248.013 61.3C245.479 62.5667 242.846 63.8333 240.113 65.1C237.446 66.3 234.913 67.3333 232.513 68.2C230.579 68.9333 228.379 69.5667 225.913 70.1C223.446 70.6333 221.113 70.7667 218.913 70.5C216.779 70.2333 214.979 69.4333 213.513 68.1C211.979 66.7667 211.212 64.6 211.212 61.6C211.212 59.4667 211.746 57.3 212.812 55.1C213.879 52.8333 215.312 50.6333 217.113 48.5C218.913 46.3667 220.946 44.3667 223.213 42.5C225.546 40.5667 227.946 38.9 230.413 37.5C232.879 36.0333 235.313 34.9 237.713 34.1C240.113 33.2333 242.279 32.8 244.213 32.8C246.079 32.8 247.813 33.2667 249.413 34.2C251.013 35.0667 251.813 36.5667 251.813 38.7C251.813 39.9 251.346 41.1667 250.413 42.5C249.479 43.7667 248.246 45.0333 246.713 46.3C245.179 47.5667 243.479 48.8 241.613 50C239.746 51.1333 237.879 52.1333 236.013 53C234.146 53.8667 232.379 54.5667 230.713 55.1C229.046 55.5667 227.679 55.8 226.613 55.8C225.746 55.8 224.879 55.6667 224.013 55.4C223.213 55.1333 222.446 54.7667 221.713 54.3ZM228.713 47.9C230.646 47.3 232.379 46.6667 233.913 46C235.513 45.3333 236.846 44.6333 237.913 43.9C239.046 43.1667 239.746 42.5333 240.013 42C240.346 41.4667 240.379 41.1 240.113 40.9C239.846 40.7 239.346 40.6667 238.613 40.8C237.879 40.9333 237.079 41.2667 236.213 41.8C235.079 42.4667 233.879 43.3333 232.613 44.4C231.346 45.4 230.046 46.5667 228.713 47.9Z" fill="#EEFF00"/>
</svg>
