<?xml version="1.0" ?>
<svg xmlns="http://www.w3.org/2000/svg" version="1.1" width="952" height="124" viewBox="0 0 952 124">
	<path d="M 0,97 L 0,123 L 23,123 L 18,123 L 17,122 L 15,122 L 14,121 L 13,121 L 11,119 L 10,119 L 6,115 L 6,114 L 4,112 L 4,111 L 3,110 L 3,109 L 2,108 L 2,106 L 1,105 L 1,102 L 0,101 Z" fill="white"/>
	<path d="M 859,0 L 864,0 L 865,1 L 867,1 L 868,2 L 869,2 L 870,3 L 871,3 L 878,10 L 878,11 L 880,13 L 880,15 L 881,16 L 881,17 L 882,18 L 882,21 L 883,22 L 883,28 L 884,29 L 884,36 L 883,37 L 858,37 L 857,36 L 857,25 L 856,24 L 855,24 L 854,23 L 852,23 L 851,24 L 850,24 L 849,25 L 849,32 L 850,33 L 850,34 L 853,37 L 853,38 L 857,42 L 858,42 L 876,60 L 876,61 L 879,64 L 879,65 L 880,66 L 880,67 L 881,68 L 881,69 L 882,70 L 882,72 L 883,73 L 883,75 L 884,76 L 884,83 L 885,84 L 885,89 L 884,90 L 884,99 L 883,100 L 883,103 L 882,104 L 882,106 L 881,107 L 881,109 L 880,110 L 880,111 L 878,113 L 878,114 L 872,120 L 871,120 L 870,121 L 869,121 L 868,122 L 866,122 L 865,123 L 858,123 L 951,123 L 951,122 L 927,122 L 926,121 L 926,68 L 917,68 L 917,121 L 916,122 L 892,122 L 891,121 L 891,1 L 892,0 L 916,0 L 917,1 L 917,43 L 926,43 L 926,1 L 927,0 L 951,0 Z" fill="white"/>
	<path d="M 36,0 L 40,0 L 41,1 L 43,1 L 44,2 L 45,2 L 46,3 L 47,3 L 49,5 L 50,5 L 53,8 L 53,9 L 55,11 L 55,12 L 56,13 L 56,14 L 57,15 L 57,17 L 58,18 L 58,21 L 59,22 L 59,26 L 60,27 L 60,42 L 59,43 L 36,43 L 35,42 L 35,27 L 34,26 L 34,25 L 32,23 L 29,23 L 28,24 L 27,24 L 26,25 L 26,26 L 25,27 L 25,96 L 26,97 L 26,98 L 27,99 L 33,99 L 34,98 L 34,96 L 35,95 L 35,73 L 30,73 L 29,72 L 29,51 L 30,50 L 59,50 L 60,51 L 60,121 L 59,122 L 49,122 L 48,121 L 48,120 L 47,119 L 47,117 L 46,116 L 46,115 L 45,114 L 38,121 L 37,121 L 36,122 L 34,122 L 33,123 L 28,123 L 853,123 L 845,123 L 844,122 L 842,122 L 841,121 L 839,121 L 838,120 L 837,120 L 835,118 L 834,118 L 830,114 L 830,113 L 828,111 L 828,110 L 827,109 L 827,108 L 826,107 L 826,105 L 825,104 L 825,100 L 824,99 L 824,77 L 825,76 L 848,76 L 849,77 L 849,94 L 850,95 L 850,97 L 851,98 L 851,99 L 857,99 L 858,98 L 858,97 L 859,96 L 859,87 L 858,86 L 858,83 L 857,82 L 857,81 L 856,80 L 856,79 L 855,78 L 855,77 L 830,52 L 830,51 L 828,49 L 828,48 L 827,47 L 827,46 L 826,45 L 826,43 L 825,42 L 825,40 L 824,39 L 824,22 L 825,21 L 825,18 L 826,17 L 826,15 L 827,14 L 827,13 L 828,12 L 828,11 L 836,3 L 837,3 L 838,2 L 839,2 L 840,1 L 842,1 L 843,0 L 846,0 Z" fill="white"/>
	<path d="M 0,0 L 0,24 L 0,20 L 1,19 L 1,17 L 2,16 L 2,15 L 3,14 L 3,13 L 4,12 L 4,11 L 7,8 L 7,7 L 8,6 L 9,6 L 12,3 L 13,3 L 14,2 L 15,2 L 16,1 L 18,1 L 19,0 L 23,0 Z" fill="white"/>
</svg>
