<svg version="1.1" id="Layer_1" xmlns="http://www.w3.org/2000/svg" xmlns:xlink="http://www.w3.org/1999/xlink" x="0px" y="0px"
	 width="100%" viewBox="0 0 952 124" enable-background="new 0 0 952 124" xml:space="preserve">
<path fill="#000000" opacity="1.000000" stroke="none" 
	d="
M846.213318,124.659302 
	C575.979126,125.000000 305.958221,125.000000 35.468658,125.000000 
	C34.115105,123.687485 34.832035,122.714561 35.852150,122.077881 
	C38.405426,120.484314 40.685402,118.557030 43.018311,116.677658 
	C45.550529,114.637733 47.892456,114.793549 49.709576,117.744232 
	C49.971436,118.169449 50.246777,118.586456 50.504677,119.014038 
	C52.075916,121.619003 54.505730,121.779961 57.073895,121.162193 
	C59.707573,120.528687 59.441856,118.208778 59.463795,116.282333 
	C59.571854,106.794365 59.506306,97.305244 59.510143,87.816551 
	C59.514050,78.161339 59.426929,68.504890 59.551937,58.851532 
	C59.600971,55.065140 58.231255,53.359238 54.324833,53.460342 
	C48.669266,53.606716 43.005589,53.535854 37.346573,53.485558 
	C34.049046,53.456257 32.392879,54.766300 32.484669,58.205875 
	C32.568981,61.365433 32.509529,64.530891 32.497971,67.693527 
	C32.489441,70.028046 33.045841,71.935753 35.481152,72.890274 
	C37.638832,73.735985 38.286926,75.629036 38.361404,77.730217 
	C38.561909,83.386780 38.751663,89.057785 38.274601,94.698044 
	C37.829945,99.955185 35.510162,102.314667 31.427038,102.268005 
	C27.204161,102.219749 24.719763,99.580238 24.632929,94.120857 
	C24.339071,75.645348 24.555973,57.166183 24.515781,38.688488 
	C24.510351,36.192139 24.398726,33.688931 24.637869,31.201143 
	C25.116375,26.223293 27.969194,23.024088 31.800360,23.071598 
	C35.345619,23.115564 37.855583,26.208879 38.367973,31.167826 
	C38.402184,31.498919 38.413074,31.831978 38.433487,32.164322 
	C39.069202,42.514339 39.069378,42.514328 49.728115,42.512112 
	C59.989174,42.509979 60.037354,42.507179 59.441971,32.266048 
	C59.140808,27.085819 57.978268,22.047628 56.191204,17.182798 
	C54.340858,12.145703 51.062782,8.325694 46.247295,5.795884 
	C44.431107,4.841752 41.982162,4.446365 41.791931,1.388968 
	C53.687561,1.000000 65.375122,1.000000 77.531342,1.000000 
	C80.009392,3.481952 79.450317,6.342335 79.166054,9.143935 
	C76.109337,39.269787 73.212372,69.410934 70.383141,99.558990 
	C69.870361,105.023094 69.432869,110.500977 68.666962,115.942291 
	C68.145172,119.649216 69.517410,121.640747 73.552063,121.507607 
	C77.376381,121.381386 81.209969,121.453926 85.038490,121.486443 
	C87.833916,121.510185 89.372467,120.438530 89.565178,117.469543 
	C89.780548,114.151482 90.469742,110.875107 90.629562,107.542603 
	C90.783478,104.333229 92.536217,102.729263 95.713791,102.588211 
	C96.377785,102.558739 95.548584,102.623833 96.212540,102.563797 
	C105.817101,101.695419 107.801170,103.174149 108.317825,112.800507 
	C108.774223,121.304153 108.089821,121.544914 118.016899,121.493530 
	C120.014755,121.483185 122.014091,121.542061 124.010292,121.473076 
	C128.999969,121.300652 129.685837,120.472466 129.165787,115.360565 
	C125.511864,79.443504 122.356430,43.478306 118.756683,7.556005 
	C118.556824,5.561679 118.377350,3.561502 119.731834,1.359538 
	C125.688042,1.000000 131.376083,1.000000 137.532059,1.000000 
	C140.021637,3.436700 139.498886,6.374062 139.501648,9.157938 
	C139.536240,43.989075 139.517624,78.820251 139.527771,113.651421 
	C139.530014,121.386871 139.612823,121.538208 147.306961,121.457253 
	C163.724472,121.284500 161.279007,123.575951 161.455032,107.549484 
	C161.572174,96.884720 161.398972,86.216919 161.525360,75.552216 
	C161.563095,72.367798 160.827118,68.419113 165.759369,67.899063 
	C169.522797,67.502258 172.194763,70.390388 172.374039,75.582588 
	C172.759354,86.741875 172.444550,97.911736 172.528122,109.076790 
	C172.631165,122.844444 171.117142,121.405502 184.785706,121.461372 
	C195.114914,121.503593 194.459671,122.127136 194.472610,111.616158 
	C194.486145,100.616867 194.470108,89.617531 194.476471,78.618225 
	C194.479828,72.786987 193.430954,67.318787 189.167801,62.955158 
	C187.130051,60.869350 187.156311,58.893764 189.294479,56.943150 
	C194.264847,52.408772 195.589966,46.520840 195.457718,40.138668 
	C195.319931,33.489613 195.942520,26.825256 194.596161,20.201715 
	C193.136185,13.019167 189.707260,7.536777 182.659073,4.724258 
	C181.298706,4.181407 179.772888,3.672461 179.798523,1.408873 
	C186.687637,1.000000 193.375290,1.000000 200.531464,1.000000 
	C203.774307,6.870831 203.506287,13.319295 204.286423,19.522896 
	C208.316086,51.566967 212.231949,83.625732 216.156723,115.682869 
	C216.696518,120.091805 218.210739,121.778938 222.662231,121.584976 
	C229.144440,121.302513 235.651611,121.388458 242.141586,121.557449 
	C246.154846,121.661949 248.124542,120.362778 248.664200,116.043411 
	C252.688858,83.830505 256.431549,51.582642 260.599365,19.388180 
	C261.364868,13.475038 261.360443,7.413801 263.733551,1.355195 
	C265.388885,1.000000 266.777802,1.000000 268.583344,1.000000 
	C271.133759,3.578583 270.571899,6.685062 270.575317,9.625919 
	C270.614532,43.397388 270.598938,77.168915 270.600464,110.940430 
	C270.600555,112.604012 270.701019,114.274643 270.599426,115.929764 
	C270.347473,120.035698 272.284119,121.622131 276.275635,121.425529 
	C279.760406,121.253876 283.261047,121.368423 286.753967,121.380814 
	C289.835846,121.391747 291.377350,120.040115 291.356689,116.897957 
	C291.345764,115.236198 291.398560,113.571686 291.398682,111.908318 
	C291.401123,77.970444 291.389282,44.032558 291.419312,10.094705 
	C291.421783,7.296361 290.998291,4.414234 292.707672,1.385635 
	C294.388885,1.000000 295.777802,1.000000 297.583344,1.000000 
	C299.453857,2.621416 299.509888,4.633100 299.552765,6.638734 
	C299.613251,9.467699 299.577637,12.297472 299.580566,15.126893 
	C299.589325,23.558691 299.578491,23.650305 307.898560,24.498053 
	C311.496399,24.864639 313.363800,26.511656 313.492798,30.144524 
	C313.563721,32.141636 313.579407,34.137756 313.579651,36.134720 
	C313.583069,62.099247 313.568604,88.063782 313.589752,114.028297 
	C313.595612,121.195107 313.806885,121.375175 320.779755,121.415565 
	C323.442719,121.430992 326.106018,121.440605 328.768799,121.412689 
	C334.962524,121.347763 335.339172,121.012215 335.403046,114.971870 
	C335.464661,109.147057 335.417450,103.321243 335.418396,97.495872 
	C335.421753,76.191650 335.391907,54.887379 335.433563,33.583218 
	C335.449463,25.457485 336.186096,24.742554 344.151611,24.420902 
	C350.010010,24.184338 350.177185,23.887091 350.448425,18.071991 
	C350.702209,12.630869 349.446991,7.091130 351.715027,1.377603 
	C390.020905,1.000000 428.041779,1.000000 466.531342,1.000000 
	C469.019989,3.441728 468.474579,6.380911 468.477386,9.162851 
	C468.512665,43.995731 468.495178,78.828651 468.503326,113.661568 
	C468.505127,121.476089 468.523102,121.479149 476.222656,121.498230 
	C478.889252,121.504837 481.563751,121.372108 484.220673,121.523285 
	C488.060059,121.741745 489.584686,120.115059 489.536163,116.257996 
	C489.416595,106.760002 489.492279,97.258873 489.499847,87.759010 
	C489.500793,86.592361 489.496826,85.425697 489.501617,84.259056 
	C489.539551,75.029633 489.923218,74.634895 498.980042,74.497482 
	C514.101257,74.268051 521.201782,67.948174 523.444824,52.991226 
	C524.765503,44.184727 525.005554,35.409821 523.477966,26.622034 
	C521.698914,16.387594 517.873169,7.712020 506.683594,4.621529 
	C505.274414,4.232327 503.761505,3.677900 503.795685,1.399733 
	C513.354248,1.000000 522.708435,1.000000 532.531372,1.000000 
	C535.021545,3.436684 534.499207,6.374015 534.501953,9.157921 
	C534.536499,43.989037 534.517822,78.820198 534.528076,113.651344 
	C534.530334,121.386757 534.613281,121.538177 542.307129,121.457253 
	C558.725098,121.284554 556.278564,123.575653 556.454773,107.549240 
	C556.572083,96.884483 556.398621,86.216690 556.525146,75.551987 
	C556.562927,72.367500 555.827393,68.418915 560.759583,67.899086 
	C564.523010,67.502434 567.194946,70.390427 567.374207,75.582726 
	C567.759644,86.741989 567.444702,97.911858 567.528381,109.076904 
	C567.631592,122.844627 566.116882,121.405495 579.785950,121.461372 
	C590.114868,121.503593 589.459412,122.127449 589.472351,111.615860 
	C589.485901,100.616577 589.469727,89.617241 589.476318,78.617943 
	C589.479858,72.786652 588.430786,67.318588 584.167542,62.955029 
	C582.129578,60.869118 582.156738,58.893436 584.294678,56.942993 
	C589.265015,52.408531 590.589905,46.520584 590.457520,40.138390 
	C590.319519,33.489342 590.942505,26.824944 589.596130,20.201427 
	C588.136169,13.018979 584.707153,7.536488 577.658875,4.724141 
	C576.298523,4.181348 574.772827,3.672270 574.798462,1.408815 
	C582.354248,1.000000 589.708496,1.000000 597.531372,1.000000 
	C600.133911,3.578497 599.572083,6.684986 599.575500,9.625834 
	C599.614807,43.397236 599.599243,77.168701 599.600708,110.940147 
	C599.600769,112.603722 599.701355,114.274361 599.599670,115.929466 
	C599.347595,120.035278 601.283813,121.622078 605.275513,121.425499 
	C608.760254,121.253891 612.260925,121.368439 615.753845,121.380806 
	C618.835632,121.391708 620.377258,120.040199 620.356506,116.897995 
	C620.345520,115.236237 620.398376,113.571724 620.398499,111.908363 
	C620.400940,77.970551 620.389038,44.032734 620.419189,10.094950 
	C620.421692,7.296550 619.998230,4.414417 621.707581,1.385697 
	C623.388916,1.000000 624.777771,1.000000 626.583374,1.000000 
	C628.756836,3.026245 628.682800,5.656161 629.255554,8.051436 
	C634.640564,30.572241 639.747009,53.162273 645.481506,75.595795 
	C648.347046,86.805725 647.205078,98.123985 647.419006,109.411331 
	C647.683472,123.364021 645.955688,121.369347 659.810364,121.547241 
	C660.809814,121.560074 661.814148,121.484756 662.808472,121.549522 
	C666.240967,121.773109 667.582642,120.128922 667.561279,116.777992 
	C667.509216,108.614784 667.714600,100.445663 667.490784,92.288315 
	C667.323547,86.193420 668.524109,80.356834 669.923218,74.527878 
	C675.599976,50.877659 681.316345,27.237005 686.699219,3.517418 
	C686.847839,2.862231 687.116028,2.255124 687.739258,1.344837 
	C691.361267,1.000000 694.722595,1.000000 698.541931,1.000000 
	C700.337402,2.580840 700.006287,4.411168 699.832214,6.244499 
	C696.857666,37.570415 693.925049,68.900139 690.784302,100.210358 
	C690.236572,105.670471 689.745056,111.149323 689.285461,116.624054 
	C688.996460,120.066162 690.002991,121.617599 693.563538,121.513283 
	C697.391479,121.401131 701.229675,121.402374 705.057617,121.508636 
	C708.817688,121.613014 710.617065,120.059898 710.500366,116.209869 
	C710.404358,113.043762 710.678406,109.896431 711.465759,106.793037 
	C712.127625,104.184067 713.652466,102.791084 716.345337,102.622246 
	C717.844055,102.528290 719.341614,102.489296 720.840515,102.514732 
	C727.206299,102.622749 727.948730,103.438347 728.523315,109.601517 
	C729.883789,124.195663 729.063049,121.250404 741.006958,121.459778 
	C751.589539,121.645279 750.205261,121.760529 749.296875,112.132706 
	C746.138062,78.652542 743.153198,45.154987 739.707031,11.701689 
	C739.368591,8.416711 738.958374,5.078467 739.760010,1.375730 
	C745.688049,1.000000 751.376038,1.000000 757.532043,1.000000 
	C760.027832,3.424845 759.541260,6.357993 759.544006,9.142682 
	C759.577942,43.280678 759.564270,77.418716 759.566406,111.556740 
	C759.566528,113.221893 759.631165,114.889664 759.585510,116.551598 
	C759.494568,119.865540 760.962952,121.449150 764.348083,121.419518 
	C768.176880,121.385986 772.009216,121.495079 775.837219,121.405678 
	C780.854492,121.288483 781.363708,120.783821 781.407104,115.426872 
	C781.493408,104.769661 781.417114,94.111572 781.444458,83.453896 
	C781.449158,81.624748 781.373047,79.778305 781.901123,77.997292 
	C782.235413,76.869797 782.656433,75.692757 784.126770,75.743408 
	C785.293518,75.783592 785.754089,76.758553 786.148987,77.685493 
	C786.806641,79.228943 787.082031,80.878578 787.409058,82.509956 
	C789.602234,93.449493 791.913818,104.367783 793.889832,115.347107 
	C794.673950,119.704430 796.657288,121.821159 801.223450,121.468239 
	C804.036255,121.250839 806.882324,121.461807 809.712830,121.424911 
	C816.002380,121.342926 816.414062,120.976250 816.419983,114.495857 
	C816.451843,79.691750 816.421570,44.887592 816.454407,10.083490 
	C816.457031,7.284210 816.011169,4.398242 817.716858,1.375777 
	C826.354248,1.000000 834.708496,1.000000 843.531372,1.000000 
	C845.236145,3.358844 843.205200,3.935048 841.845581,4.609529 
	C831.346436,9.817833 827.699646,18.678535 827.239807,29.897385 
	C826.761658,41.562698 830.560364,50.973537 839.137939,58.808285 
	C844.665344,63.857029 849.856934,69.284576 855.049683,74.687485 
	C860.286987,80.136787 862.571655,86.774025 862.278687,94.277901 
	C862.083191,99.284424 860.099670,101.798134 856.331299,102.157982 
	C852.259583,102.546799 849.949402,100.385307 848.998535,95.099693 
	C848.316101,91.305649 848.665955,87.453987 848.658630,83.630043 
	C848.653015,80.704453 847.399841,79.350647 844.460999,79.366272 
	C840.131409,79.389305 835.801453,79.355240 831.471436,79.380173 
	C828.885498,79.395065 827.333923,80.424721 827.388306,83.212181 
	C827.520996,90.021355 826.800598,96.858482 828.409729,103.611809 
	C830.343201,111.726257 834.436584,117.958939 842.597778,120.968826 
	C844.235779,121.572929 846.281433,121.917610 846.213318,124.659302 
z"/>
<path fill="#FFFFFF" opacity="1.000000" stroke="none" 
	d="
M817.531372,1.000000 
	C818.000000,40.161060 817.942444,79.322342 818.093506,118.482826 
	C818.107849,122.193047 817.288574,123.364014 813.499817,123.091873 
	C808.360901,122.722740 803.161865,122.770653 798.014709,123.076973 
	C794.303528,123.297844 793.510864,121.658363 792.898376,118.358788 
	C790.281555,104.262032 787.290955,90.234657 784.418640,76.185646 
	C784.407043,76.128960 784.135071,76.125519 783.711121,76.045715 
	C782.316528,77.049660 783.047241,78.676529 783.040588,79.975433 
	C782.973755,92.971954 782.892029,105.970482 783.076416,118.964729 
	C783.122009,122.174004 782.354431,123.242378 779.019592,123.081444 
	C773.034973,122.792633 767.026123,122.965416 761.028076,123.020645 
	C759.214600,123.037346 757.944153,123.061676 757.949646,120.516479 
	C758.034058,81.359688 758.020569,42.202690 758.060913,3.045771 
	C758.061340,2.619007 758.473755,2.192664 758.346924,1.383061 
	C766.354248,1.000000 774.708496,1.000000 783.531372,1.000000 
	C785.339478,2.385391 785.856018,4.146715 786.163696,5.965580 
	C788.248108,18.285810 791.150696,30.453735 792.728088,40.466633 
	C792.323730,30.050249 792.558899,17.276867 792.664917,4.505051 
	C792.673218,3.498895 792.928833,2.525266 793.748901,1.331783 
	C801.687561,1.000000 809.375183,1.000000 817.531372,1.000000 
z"/>
<path fill="#FFFFFF" opacity="1.000000" stroke="none" 
	d="
M892.705078,1.388593 
	C901.020935,1.000000 909.041809,1.000000 917.531372,1.000000 
	C919.694153,2.938972 919.520264,5.324991 919.531128,7.639136 
	C919.574097,16.786413 919.543701,25.933886 919.550354,35.081284 
	C919.551331,36.411659 919.524841,37.742958 919.604492,39.071842 
	C919.730225,41.171970 920.032959,43.127197 922.794495,43.230877 
	C925.820557,43.344486 926.361511,41.338074 926.393311,38.983707 
	C926.525757,29.171753 926.393311,19.358763 926.468872,9.546700 
	C926.489136,6.914030 926.075989,4.200170 927.727295,1.363969 
	C934.979126,1.000000 941.966858,1.205131 948.933472,0.909773 
	C952.207642,0.770961 953.123169,1.345152 953.107483,4.913904 
	C952.936035,43.962898 953.000000,83.012932 953.000000,122.531342 
	C945.323059,125.136841 937.510071,123.703766 929.762024,123.791977 
	C927.236145,123.820732 926.802673,121.432007 926.591003,119.406799 
	C926.209839,115.759407 926.410400,112.091026 926.402527,108.431793 
	C926.380676,98.281082 926.399841,88.130295 926.390747,77.979538 
	C926.389465,76.483398 926.392151,74.989098 926.169250,73.498161 
	C925.902405,71.713226 924.908386,70.915276 923.123718,70.925156 
	C921.396362,70.934715 920.280212,71.627953 919.915649,73.391029 
	C919.575256,75.036995 919.611572,76.701065 919.609131,78.363289 
	C919.590576,91.010101 919.675781,103.657364 919.569275,116.303589 
	C919.510315,123.303429 918.753967,123.971024 911.812622,123.992180 
	C906.986938,124.006889 902.153931,123.836609 897.337524,124.039009 
	C893.215942,124.212212 891.588867,122.247360 891.480530,118.432327 
	C891.437988,116.935089 891.398132,115.438454 891.397949,113.940887 
	C891.393494,79.162056 891.386658,44.383224 891.412598,9.604413 
	C891.414551,6.967462 891.058105,4.254945 892.705078,1.388593 
z"/>
<path fill="#FFFFFF" opacity="1.000000" stroke="none" 
	d="
M574.531372,1.000000 
	C573.917419,2.329891 575.159363,2.806561 575.954529,2.919937 
	C584.627625,4.156579 589.081238,10.182024 590.709839,17.753178 
	C592.889587,27.886885 592.822998,38.299065 591.014526,48.610497 
	C590.140015,53.597069 587.299744,57.103409 582.701660,59.845123 
	C590.130249,64.600006 591.093567,71.922997 591.029419,79.768463 
	C590.921814,92.932747 590.886902,106.100235 591.082642,119.262489 
	C591.129333,122.398270 590.289062,123.212578 587.221252,123.075348 
	C581.400269,122.814980 575.549194,122.795280 569.730652,123.081612 
	C566.561462,123.237556 565.888977,122.249435 565.924744,119.214027 
	C566.093689,104.884315 565.980042,90.551453 566.023071,76.219879 
	C566.029053,74.224388 565.896912,72.340019 564.884460,70.555885 
	C563.571411,68.241989 561.383484,69.005714 559.511414,69.055519 
	C556.991516,69.122543 558.059326,71.260620 558.053162,72.452393 
	C557.973083,87.950211 557.911255,103.449516 558.073486,118.946045 
	C558.106628,122.118752 557.409912,123.251373 554.037415,123.083542 
	C548.052917,122.785736 542.042725,122.968674 536.043823,123.018845 
	C534.249023,123.033859 532.944275,123.097046 532.949768,120.531593 
	C533.034241,81.369804 533.020569,42.207809 533.060913,3.045899 
	C533.061340,2.619094 533.473755,2.192708 533.346924,1.383062 
	C546.687561,1.000000 560.375122,1.000000 574.531372,1.000000 
z"/>
<path fill="#FFFFFF" opacity="1.000000" stroke="none" 
	d="
M179.531342,1.000000 
	C178.917648,2.329860 180.159332,2.806548 180.954575,2.919953 
	C189.627563,4.156759 194.081345,10.181981 195.709915,17.753202 
	C197.889694,27.886957 197.822937,38.299149 196.014511,48.610600 
	C195.139954,53.597153 192.299637,57.103447 187.701935,59.845078 
	C195.130142,64.600159 196.093582,71.923096 196.029449,79.768578 
	C195.921829,92.932861 195.886826,106.100357 196.082687,119.262611 
	C196.129364,122.398735 195.288620,123.212494 192.221115,123.075340 
	C186.400085,122.815063 180.549072,122.795250 174.730484,123.081612 
	C171.561111,123.237587 170.888901,122.249153 170.924698,119.213913 
	C171.093628,104.884201 170.980011,90.551338 171.022980,76.219765 
	C171.028961,74.224297 170.897003,72.339874 169.884445,70.555733 
	C168.571289,68.241920 166.383301,69.005684 164.511276,69.055534 
	C161.991501,69.122612 163.059326,71.260712 163.053177,72.452477 
	C162.973068,87.950302 162.911194,103.449600 163.073486,118.946136 
	C163.106720,122.119141 162.409561,123.251305 159.037323,123.083519 
	C153.052811,122.785797 147.042572,122.968681 141.043671,123.018845 
	C139.248886,123.033852 137.944229,123.096939 137.949768,120.531502 
	C138.034271,81.369713 138.020615,42.207714 138.060883,3.045798 
	C138.061325,2.619024 138.473724,2.192673 138.346909,1.383062 
	C151.687561,1.000000 165.375122,1.000000 179.531342,1.000000 
z"/>
<path fill="#FFFFFF" opacity="1.000000" stroke="none" 
	d="
M41.531422,1.000000 
	C40.972252,2.291032 42.084270,2.712865 42.940201,2.942090 
	C54.325546,5.991176 57.874928,14.948308 60.060291,25.151035 
	C61.075634,29.891329 60.744850,34.631744 61.065575,39.370220 
	C61.301437,42.854954 60.665630,44.450768 56.613834,44.105465 
	C51.490131,43.668816 46.282562,43.733837 41.146263,44.089409 
	C37.448322,44.345406 36.615364,42.977036 36.939636,39.631264 
	C37.227371,36.662498 37.172192,33.631115 36.952934,30.650574 
	C36.717049,27.443886 35.800869,24.097118 31.874241,24.119776 
	C28.145811,24.141294 26.021563,26.666616 26.015900,30.498606 
	C25.983919,52.141113 25.966248,73.783806 26.044878,95.426079 
	C26.054432,98.055527 26.590155,100.558197 30.120520,101.055397 
	C33.844170,101.579819 36.460842,100.349907 36.673233,96.614067 
	C37.069057,89.651772 36.940952,82.658424 36.979404,75.677719 
	C36.993755,73.072685 34.892319,73.988693 33.689766,74.068619 
	C31.393543,74.221260 30.908966,73.288269 30.957434,71.192276 
	C31.084404,65.701332 31.106262,60.202477 30.949175,54.713097 
	C30.884560,52.455189 31.670788,51.927544 33.795864,51.956024 
	C41.951977,52.065331 50.111622,52.076996 58.267223,51.950012 
	C60.493969,51.915340 61.050827,52.621948 61.043713,54.775059 
	C60.971619,76.583855 60.973389,98.393066 61.041695,120.201889 
	C61.048317,122.315407 60.547180,123.008904 58.299335,123.077538 
	C53.670879,123.218857 49.124149,123.713531 48.040642,117.485291 
	C47.590008,114.894928 45.802883,115.652809 44.885826,116.760437 
	C42.018311,120.223869 38.218723,122.271660 34.707535,124.686035 
	C29.977907,125.000000 24.955816,125.000000 19.466862,125.000000 
	C8.772061,121.431046 3.382049,113.913284 1.243285,103.271606 
	C1.000000,75.979103 1.000000,48.958210 1.000000,21.468658 
	C2.814779,17.167622 4.172559,13.115532 6.925785,9.752023 
	C10.266320,5.671019 14.421061,2.922968 19.735939,1.243183 
	C27.020948,1.000000 34.041897,1.000000 41.531422,1.000000 
z"/>
<path fill="#FFFFFF" opacity="1.000000" stroke="none" 
	d="
M739.531311,1.000002 
	C740.666626,6.988131 741.359802,12.973454 741.994446,18.964966 
	C743.334717,31.616461 744.706421,44.265133 745.944397,56.926785 
	C746.740784,65.072487 747.190002,73.252861 748.030273,81.393402 
	C749.353271,94.209908 749.719238,107.124832 751.959839,119.847061 
	C752.342896,122.021881 751.862183,123.148285 749.202271,123.062714 
	C743.050232,122.864769 736.887268,122.970772 730.729248,123.019012 
	C729.076111,123.031952 727.784607,123.010315 727.974854,120.733200 
	C728.360535,116.116844 726.285339,111.653641 727.004517,107.002602 
	C727.375549,104.602684 726.406799,103.662872 723.998535,103.974693 
	C722.852661,104.123062 721.671631,104.000023 720.506531,104.000000 
	C712.139099,103.999817 712.139099,103.999832 712.000000,112.692009 
	C711.834961,123.000000 711.835022,123.000008 701.283447,123.000000 
	C697.621704,122.999992 693.950623,122.839195 690.301147,123.050659 
	C687.370300,123.220474 686.248718,122.277649 687.255493,119.416962 
	C688.802673,115.020470 688.320496,110.349861 688.799866,105.851685 
	C690.235352,92.381187 691.370544,78.876778 692.929993,65.410133 
	C693.927979,56.791393 693.857239,48.034420 695.112061,39.463329 
	C696.950195,26.907974 696.288086,14.062675 699.322083,1.352129 
	C712.354248,1.000000 725.708435,1.000000 739.531311,1.000002 
z"/>
<path fill="#FFFFFF" opacity="1.000000" stroke="none" 
	d="
M119.531342,1.000000 
	C120.469467,11.138920 121.873802,21.188963 122.807373,31.277983 
	C123.531143,39.099609 124.249054,46.931118 124.972168,54.759422 
	C126.189301,67.935951 126.979240,81.152443 128.958115,94.254059 
	C129.495132,97.809464 129.318619,101.435440 129.680771,105.028145 
	C130.188049,110.060707 131.129547,115.119507 131.062805,120.244690 
	C131.034500,122.417946 130.453598,123.102417 128.253983,123.048340 
	C122.426819,122.905067 116.591957,122.913063 110.763924,123.037308 
	C107.956963,123.097145 106.929298,122.002983 106.948051,119.214546 
	C106.972198,115.621880 106.483650,111.993950 106.298141,108.456253 
	C106.067451,104.057068 104.340126,103.709297 100.987274,103.971039 
	C98.189392,104.189453 94.764931,103.203163 92.733376,104.499039 
	C90.699959,105.796089 92.388977,109.435776 91.975975,112.005333 
	C91.771706,113.276253 91.192795,114.491173 91.026192,115.763222 
	C90.078773,122.996727 90.103706,123.000015 82.743385,122.999977 
	C78.412018,122.999954 74.076363,122.885315 69.751083,123.047470 
	C67.548538,123.130043 66.757629,122.437675 66.981834,120.243248 
	C67.961777,110.651985 68.874763,101.053864 69.811089,91.458145 
	C70.541412,83.973694 71.415497,76.499794 71.968163,69.002235 
	C72.965714,55.469208 74.309570,41.978157 75.934929,28.505468 
	C76.895538,20.542879 77.330467,12.516837 77.999161,4.519110 
	C78.079758,3.555148 77.737350,2.490358 78.340248,1.369406 
	C91.687561,1.000000 105.375122,1.000000 119.531342,1.000000 
z"/>
<path fill="#FFFFFF" opacity="1.000000" stroke="none" 
	d="
M846.468506,125.000000 
	C846.798889,123.413559 845.765930,123.271370 844.567139,122.978058 
	C831.900635,119.878822 827.469421,110.247444 826.122192,98.725952 
	C825.430908,92.814964 826.089722,86.754501 825.953186,80.765816 
	C825.903564,78.592392 826.529419,77.899635 828.742065,77.950844 
	C834.896973,78.093292 841.062378,78.145943 847.213318,77.933929 
	C849.959778,77.839272 849.959839,79.143791 850.055908,81.217804 
	C850.305786,86.610992 849.365173,92.007271 850.873535,97.427185 
	C851.825623,100.848206 853.707947,101.009026 856.536194,101.081291 
	C859.788330,101.164368 860.670532,98.787704 860.870544,96.750893 
	C861.626709,89.049385 860.103394,81.809784 854.512634,76.041153 
	C848.142883,69.468864 841.900269,62.721397 835.044250,56.683849 
	C822.819275,45.918331 822.497314,16.024746 835.508789,6.787256 
	C838.429382,4.713801 841.916870,3.950057 844.293152,1.318125 
	C851.020935,1.000000 858.041931,1.000000 865.531433,1.000000 
	C879.957275,7.124923 887.170654,19.042604 886.274048,34.270428 
	C886.082581,37.523270 884.650146,39.188686 881.382141,39.257835 
	C875.225586,39.388096 869.069397,39.343586 862.912476,39.280392 
	C859.421631,39.244568 857.743774,37.536079 857.703186,34.049850 
	C857.681946,32.227905 857.820312,30.376802 857.307129,28.590103 
	C856.840698,26.966690 855.810486,25.966913 854.040466,26.171478 
	C852.487244,26.350986 851.812988,27.507797 851.570435,28.918255 
	C851.187256,31.146122 851.630554,33.237431 852.871216,35.118359 
	C854.802185,38.045803 857.081482,40.630428 859.756897,42.956764 
	C866.790039,49.072052 873.698486,55.377544 879.267151,62.892811 
	C885.695679,71.568710 887.603149,81.517311 886.712097,92.165863 
	C886.224854,97.988403 885.666687,103.758698 883.485107,109.249207 
	C880.505798,116.747261 875.775452,122.403740 867.305542,124.746857 
	C860.312378,125.000000 853.624695,125.000000 846.468506,125.000000 
z"/>
<path fill="#FFFFFF" opacity="1.000000" stroke="none" 
	d="
M263.531372,1.000000 
	C263.249908,11.736711 261.673462,22.364664 260.111023,33.008633 
	C258.713715,42.527626 258.133759,52.163567 256.964691,61.719955 
	C255.820908,71.069527 254.286667,80.370995 253.111465,89.717178 
	C251.951981,98.938408 250.809158,108.172531 250.101990,117.434822 
	C249.797455,121.423637 248.936447,123.304268 244.400970,123.106377 
	C235.921921,122.736404 227.409271,122.815742 218.922943,123.090134 
	C215.499680,123.200813 215.165466,121.967880 214.874542,118.933205 
	C213.928528,109.064705 212.388168,99.254555 211.170654,89.410301 
	C210.050537,80.353691 209.198349,71.262024 207.960831,62.222389 
	C206.593491,52.234573 205.606491,42.201935 204.228500,32.211670 
	C203.028198,23.509567 202.105072,14.742903 201.055313,6.004734 
	C200.889664,4.625761 200.435104,2.997546 201.337585,1.365377 
	C208.687576,1.000000 216.375168,1.000000 224.531372,1.000000 
	C227.465179,4.524632 226.755264,8.732035 227.134094,12.585649 
	C228.920273,30.755915 231.475815,48.846352 232.802811,67.062622 
	C232.898285,68.373146 233.245758,69.714874 232.566116,70.382820 
	C233.357529,67.151848 232.955826,63.307758 233.308594,59.575382 
	C235.026520,41.398575 236.962738,23.242483 238.567413,5.055007 
	C238.670242,3.889495 238.814774,2.740371 239.730011,1.361305 
	C247.687576,1.000000 255.375168,1.000000 263.531372,1.000000 
z"/>
<path fill="#FFFFFF" opacity="1.000000" stroke="none" 
	d="
M503.531342,1.000000 
	C502.889740,2.347557 504.198669,2.832163 504.958344,2.914900 
	C517.488403,4.279581 522.480835,13.413535 524.692810,23.825598 
	C527.221558,35.729034 527.220276,48.107674 523.489868,59.833363 
	C519.732849,71.642670 513.535950,75.308502 502.004730,75.900368 
	C491.018616,76.464249 491.000031,76.101433 491.000000,86.994064 
	C491.000000,97.823547 490.904297,108.654442 491.065247,119.481537 
	C491.106995,122.289024 490.358490,123.174538 487.504822,123.066154 
	C481.681946,122.844994 475.844421,122.961655 470.013794,123.022247 
	C468.183105,123.041267 466.944183,123.029617 466.949615,120.502762 
	C467.033966,81.350441 467.020569,42.197918 467.060852,3.045478 
	C467.061310,2.618800 467.473785,2.192548 467.346924,1.383049 
	C479.020905,1.000000 491.041779,1.000000 503.531342,1.000000 
z"/>
<path fill="#FFFFFF" opacity="1.000000" stroke="none" 
	d="
M687.531372,1.000000 
	C687.361084,11.566409 683.901978,21.555256 681.577942,31.766563 
	C677.582947,49.320091 672.317322,66.638870 669.350952,84.351921 
	C667.533142,95.206284 668.754272,106.619934 669.123657,117.765419 
	C669.271057,122.213974 668.076294,123.480347 663.717346,123.096245 
	C658.924988,122.673950 654.059814,122.845451 649.239868,123.060921 
	C646.579529,123.179855 645.899719,122.316147 645.941223,119.728371 
	C646.090881,110.404716 645.750793,101.068756 646.066895,91.753418 
	C646.415955,81.465019 642.806396,71.990570 640.577759,62.251408 
	C636.275269,43.449066 631.535461,24.747038 627.087341,5.977279 
	C626.773987,4.655183 626.470886,2.986962 627.327759,1.349645 
	C634.687561,1.000000 642.375183,1.000000 650.531372,1.000000 
	C652.697998,2.594043 653.023010,4.730112 653.383972,6.878689 
	C654.721313,14.837543 655.940491,22.817785 657.548584,31.496189 
	C659.312378,22.921795 660.335693,15.013030 661.588623,7.142879 
	C661.901184,5.179048 662.063538,3.158208 663.751221,1.289767 
	C671.687561,1.000000 679.375183,1.000000 687.531372,1.000000 
z"/>
<path fill="#FFFFFF" opacity="1.000000" stroke="none" 
	d="
M351.531342,1.000000 
	C351.999908,8.333934 351.903107,15.669869 352.054718,23.000666 
	C352.104675,25.415497 351.378082,26.390215 348.988312,26.003223 
	C348.825989,25.976934 348.654724,25.988253 348.489227,26.001646 
	C344.735962,26.305374 339.588104,24.306803 337.598236,26.880060 
	C335.727844,29.298788 337.011963,34.202339 337.009430,38.012669 
	C336.991608,64.834274 336.918701,91.656441 337.094360,118.476913 
	C337.118591,122.174942 336.308472,123.359322 332.507172,123.093483 
	C327.202087,122.722488 321.834290,122.737579 316.526581,123.089439 
	C312.798645,123.336578 311.877899,122.279747 311.901093,118.511292 
	C312.080475,89.358459 311.909943,60.203423 312.103363,31.050768 
	C312.130341,26.979208 311.299683,25.710413 307.037781,25.883747 
	C298.010742,26.250887 297.868378,25.983068 298.051025,17.039482 
	C298.154999,11.949975 297.183105,6.798743 298.346924,1.383046 
	C315.687561,1.000000 333.375122,1.000000 351.531342,1.000000 
z"/>
<path fill="#FFFFFF" opacity="1.000000" stroke="none" 
	d="
M292.531372,1.000000 
	C293.000000,40.158497 292.943359,79.317207 293.092377,118.475136 
	C293.106415,122.168709 292.312744,123.351807 288.508270,123.094498 
	C283.034973,122.724335 277.517609,122.961296 272.019958,123.021576 
	C270.196564,123.041565 268.944214,123.043442 268.949677,120.508652 
	C269.034027,81.354393 269.020630,42.199932 269.060913,3.045555 
	C269.061371,2.618854 269.473785,2.192576 269.346924,1.383050 
	C276.687592,1.000000 284.375153,1.000000 292.531372,1.000000 
z"/>
<path fill="#FFFFFF" opacity="1.000000" stroke="none" 
	d="
M621.531372,1.000000 
	C622.000000,40.158497 621.943298,79.317207 622.092285,118.475143 
	C622.106445,122.168655 621.312744,123.351822 617.508240,123.094505 
	C612.034973,122.724319 606.517578,122.961288 601.019958,123.021576 
	C599.196533,123.041565 597.944214,123.043396 597.949646,120.508644 
	C598.034058,81.354401 598.020569,42.199955 598.060913,3.045591 
	C598.061340,2.618883 598.473755,2.192600 598.346924,1.383059 
	C605.687561,1.000000 613.375183,1.000000 621.531372,1.000000 
z"/>
<path fill="#000000" opacity="1.000000" stroke="none" 
	d="
M867.468628,125.000000 
	C865.903320,124.068939 866.999268,123.287285 867.471008,123.173180 
	C877.113342,120.840996 881.389587,113.516510 883.469788,104.916237 
	C886.636902,91.822510 887.500366,78.632355 880.000977,66.459656 
	C874.498291,57.527962 866.511902,50.839779 858.767456,43.955524 
	C854.119873,39.824093 849.486084,35.703438 849.918518,28.481195 
	C850.121643,25.088713 852.386536,24.126438 854.689270,24.187950 
	C856.717346,24.242130 859.121887,25.140846 859.068237,28.373812 
	C859.016968,31.467606 857.589355,35.842567 859.714478,37.353256 
	C861.953979,38.945221 866.070679,37.944141 869.368347,37.987522 
	C873.364929,38.040104 877.369385,37.860310 881.357666,38.049603 
	C883.970520,38.173615 885.352539,37.719212 885.039551,34.641354 
	C883.999695,24.419081 882.940308,14.349369 874.478760,6.840047 
	C871.722961,4.394349 868.081787,3.957736 865.706848,1.318142 
	C874.687561,1.000000 883.375183,1.000000 892.531372,1.000000 
	C893.000000,40.003387 893.075073,79.007126 892.891174,118.009651 
	C892.871460,122.194946 893.870972,123.403214 898.029724,123.098473 
	C903.500305,122.697617 909.029297,122.836082 914.519531,123.066872 
	C917.400696,123.187981 918.086487,122.246216 918.062927,119.464760 
	C917.931763,103.966072 918.223999,88.460510 917.865051,72.969025 
	C917.755615,68.244728 920.270386,69.019096 923.042358,68.976105 
	C925.924194,68.931427 928.241638,68.462517 928.134888,73.054451 
	C927.778687,88.379311 928.112122,103.719040 927.912781,119.049583 
	C927.868835,122.425545 928.900757,123.184372 932.065674,123.071877 
	C938.723816,122.835236 945.396179,123.000000 952.531372,123.000000 
	C953.611145,126.050926 951.294189,124.963989 950.024902,124.967178 
	C931.119995,125.014671 912.214905,125.000000 893.309875,125.000000 
	C884.852356,125.000000 876.394836,125.000000 867.468628,125.000000 
z"/>
<path fill="#000000" opacity="1.000000" stroke="none" 
	d="
M239.533875,1.000000 
	C239.778336,11.794241 238.451477,22.478022 237.101776,33.178730 
	C236.039017,41.604694 235.734741,50.124130 234.975342,58.591446 
	C234.579529,63.004959 233.928345,67.395569 232.853821,71.739861 
	C230.675690,61.816605 229.985519,51.843796 228.951447,41.905830 
	C227.842636,31.249367 226.363663,20.631189 225.022537,9.999291 
	C224.676422,7.255383 225.745667,4.392549 224.657837,1.372155 
	C229.689255,1.000000 234.378510,1.000000 239.533875,1.000000 
z"/>
<path fill="#000000" opacity="1.000000" stroke="none" 
	d="
M927.545898,1.000000 
	C928.000000,14.493409 927.792603,27.991739 928.112793,41.477551 
	C928.224365,46.178596 925.398621,44.973774 923.017334,44.964310 
	C920.657104,44.954926 917.765625,46.204498 917.894714,41.511723 
	C918.215149,29.862820 918.029053,18.199030 917.966125,6.541651 
	C917.957581,4.951944 918.613281,3.201581 917.653076,1.383059 
	C921.030579,1.000000 924.061218,1.000000 927.545898,1.000000 
z"/>
<path fill="#000000" opacity="1.000000" stroke="none" 
	d="
M793.545898,1.000000 
	C794.000000,16.301760 794.000000,31.603519 794.000000,46.905277 
	C793.571899,46.935387 793.143738,46.965496 792.715637,46.995609 
	C789.276367,31.960804 787.306458,16.606432 783.681519,1.340634 
	C787.030579,1.000000 790.061218,1.000000 793.545898,1.000000 
z"/>
<path fill="#000000" opacity="1.000000" stroke="none" 
	d="
M663.536804,0.999998 
	C662.196533,12.295443 660.393066,23.590889 658.472656,35.618534 
	C654.762634,32.619370 655.902527,28.533924 655.087341,25.274086 
	C653.141907,17.495134 653.298035,9.279831 650.686035,1.339202 
	C655.024536,1.000000 659.049072,1.000000 663.536804,0.999998 
z"/>
<path fill="#000000" opacity="1.000000" stroke="none" 
	d="
M19.530624,1.000000 
	C21.094524,1.923432 20.015051,2.694463 19.535788,2.819413 
	C10.142700,5.268312 5.462426,12.097419 2.638160,20.720533 
	C2.583435,20.887623 2.074632,20.905993 1.388842,20.996874 
	C1.000000,15.068377 1.094980,9.134353 0.945182,3.206515 
	C0.896926,1.296882 1.430258,0.906976 3.244780,0.952819 
	C8.513969,1.085942 13.788695,1.000000 19.530624,1.000000 
z"/>
<path fill="#000000" opacity="1.000000" stroke="none" 
	d="
M1.000000,103.468781 
	C1.592025,103.153938 2.672138,103.237595 2.705878,103.471924 
	C4.193472,113.803268 10.330874,120.334839 19.292822,124.683548 
	C13.890567,125.000000 8.771337,124.813087 3.675904,125.080170 
	C1.190637,125.210442 0.878674,124.439224 0.940755,122.230965 
	C1.112063,116.137421 1.000000,110.035919 1.000000,103.468781 
z"/>
<path fill="#FFFFFF" opacity="1.000000" stroke="none" 
	d="
M422.802490,72.002090 
	C426.224792,72.197746 424.944275,74.491142 424.924500,75.794876 
	C424.859589,80.074745 426.819580,85.726402 424.178467,88.227524 
	C421.944031,90.343475 416.320099,88.948364 412.195160,88.984344 
	C405.529907,89.042496 398.859375,88.859016 392.200195,89.067856 
	C389.462677,89.153702 388.755676,88.205673 388.968689,85.683990 
	C389.343109,81.251434 387.132721,75.360252 389.852539,72.779236 
	C392.169220,70.580772 398.028839,72.051491 402.322052,72.014992 
	C408.987305,71.958313 415.653412,72.000183 422.802490,72.002090 
z"/>
<path fill="#000000" opacity="1.000000" stroke="none" 
	d="
M561.724731,46.999943 
	C559.296631,47.184212 557.802246,47.149372 557.935181,44.305107 
	C558.168396,39.316895 557.989929,34.309879 558.003052,29.310789 
	C558.014404,24.982061 559.660706,23.625645 563.594788,25.266253 
	C570.592102,28.184305 567.744263,34.547314 567.810608,39.537579 
	C567.853699,42.779488 567.483582,47.141609 561.724731,46.999943 
z"/>
<path fill="#000000" opacity="1.000000" stroke="none" 
	d="
M169.338181,46.874336 
	C163.909698,48.025883 162.301956,45.972229 162.913467,41.032379 
	C163.356781,37.451225 162.771118,33.750149 163.099991,30.144110 
	C163.256134,28.431974 161.263992,25.498722 164.777191,25.072096 
	C167.711914,24.715723 170.555191,25.023746 172.135391,28.369974 
	C174.232666,32.811081 173.061279,42.967789 169.338181,46.874336 
z"/>
<path fill="#000000" opacity="1.000000" stroke="none" 
	d="
M718.024719,83.999817 
	C714.528625,84.471214 714.936279,82.353477 715.007629,80.560562 
	C715.314148,72.863251 716.336182,65.205338 716.768250,57.545605 
	C717.129883,51.134876 718.188721,44.758686 718.043091,38.309208 
	C718.004395,36.595200 717.449890,34.737705 719.273315,33.051258 
	C722.065369,49.738522 722.990356,66.635773 724.466553,83.664757 
	C722.673950,84.483757 720.540955,83.774246 718.024719,83.999817 
z"/>
<path fill="#000000" opacity="1.000000" stroke="none" 
	d="
M100.000000,35.152748 
	C101.120171,50.259987 102.078171,64.917145 103.938614,79.496353 
	C104.113190,80.864365 104.693909,83.310280 103.429985,83.572495 
	C100.596107,84.160408 97.483742,84.199203 94.645721,83.641937 
	C93.209099,83.359840 93.887245,80.932716 94.071320,79.599358 
	C95.168465,71.651978 95.423012,63.637848 96.177444,55.678471 
	C96.954292,47.482540 96.502380,39.125175 98.595558,30.938395 
	C100.924576,31.672010 99.610680,33.476128 100.000000,35.152748 
z"/>
<path fill="#000000" opacity="1.000000" stroke="none" 
	d="
M501.000000,38.075836 
	C500.688080,42.251595 501.657410,46.009430 499.815399,49.653671 
	C498.168701,52.911530 495.552887,53.082424 492.544434,53.022881 
	C490.619568,52.984779 491.016937,51.669449 491.013702,50.601109 
	C490.990112,42.806427 491.076508,35.010460 490.954071,27.217628 
	C490.918518,24.954449 492.075958,24.888945 493.707855,24.994123 
	C498.493286,25.302553 500.273438,28.520279 500.949738,32.633724 
	C501.215271,34.248894 500.997620,35.943512 501.000000,38.075836 
z"/>
</svg>