<svg width="38" height="50" viewBox="0 0 38 50" fill="none" xmlns="http://www.w3.org/2000/svg">
<g clip-path="url(#clip0_1_41)">
<path d="M34.25 8.44001C29.67 3.09001 20.38 3.60001 14.62 0.140006C14.1 -0.169994 13.36 0.0800062 13.08 0.590006C13 0.650006 12.94 0.730006 12.88 0.810006C12.45 1.00001 12.17 1.42001 12.38 1.99001C12.5 2.30001 12.59 2.61001 12.7 2.92001C12.81 3.85001 13.08 4.70001 13.47 5.48001C14.62 9.94001 14.93 14.51 15.6 19.13C16.18 23.22 17.34 27.48 17.64 31.69C12.06 31.22 5.46998 32.96 1.63998 36.88C-2.91002 41.52 2.95998 48.77 7.88998 49.81C14.08 51.11 19.25 41.8 19.86 36.78C20.3 33.18 18.5 24.18 17.95 20.22C17.42 16.46 17.11 12.69 16.47 8.98001C17.41 9.73001 18.46 10.4 19.54 11.03C26.11 14.84 31.91 17.01 33.05 25.49C33.2 26.63 34.87 26.42 35.16 25.49C36.99 19.63 38.62 13.57 34.25 8.47001V8.44001Z" fill="white"/>
</g>
<defs>
<clipPath id="clip0_1_41">
<rect width="37.03" height="49.92" fill="white"/>
</clipPath>
</defs>
</svg>
