<svg width="78" height="79" viewBox="0 0 78 79" fill="none" xmlns="http://www.w3.org/2000/svg">
<g clip-path="url(#clip0_1_36)">
<path d="M75.02 22.15C67.73 6.21 43.39 -5.96 27.02 3.1C26.8 2.95 26.51 2.9 26.18 3C5.09 9.11 -4.37 31.94 1.92 52.16C8.24 72.46 32.05 82.47 51.59 76.18C62.04 72.82 69.88 64.39 74.03 54.47C77.86 45.3 79.25 31.41 75.02 22.15ZM51.03 74.09C32.39 80.9 10.49 70.02 4.03 51.6C-2.29 33.54 6.47 12.61 24.32 5.9C24.49 6.55 25.16 7.05 25.84 6.53C40.41 -4.64 64 7.19 72.12 21.19C76.71 29.11 75.67 40.88 73.34 49.6C73.05 49.7 72.81 49.92 72.74 50.33C72.18 53.78 70.34 57.39 67.72 59.99C68.97 57.29 70.1 54.56 70.97 51.68C71.32 50.51 69.48 49.72 68.97 50.86C67.21 54.74 64.45 57.74 61.31 60.38C65.55 54.95 68.78 48.75 69.81 41.98C69.99 40.8 68.48 40.03 67.81 41.16C64.69 46.34 60.78 51.08 55.88 54.51C59.26 50.75 61.82 46.46 62.82 41.21C63.06 39.96 61.54 39.38 60.82 40.39C58.63 43.43 56.24 46.49 52.85 48L53.61 46.73C53.94 46.32 53.93 45.86 53.74 45.49C58.81 35.06 44.06 19.28 35.72 26.77C35.68 26.78 35.63 26.78 35.59 26.8C34.46 27.32 33.47 27.96 32.57 28.68C32.5 27.81 31.29 27.69 30.71 28.14C29.52 29.07 28.37 30.05 27.24 31.05C29.54 28.02 32.2 25.24 34.37 22.07C35.01 21.14 33.77 20.06 32.87 20.6C26.63 24.33 21.19 28.89 16.5 34.32C19.31 26.91 27.19 22.43 32.65 16.86C33.38 16.12 32.65 14.68 31.59 15.05C24.03 17.67 17.63 22.26 12.31 28.05C15.58 20.34 22.6 15.21 30.09 11.21C31.08 10.68 30.59 9.23 29.55 9.19C20.81 8.85 10.47 16.29 6.86 24.09C6.27 25.36 8.16 26.44 8.75 25.17C11.32 19.6 17.71 14.11 24.19 12.13C16.68 16.92 10.36 23.27 8.69 32.49C8.46 33.76 9.95 34.29 10.69 33.31C14.97 27.72 20.21 22.95 26.36 19.67C20.31 24.91 14.04 29.95 13.31 38.59C13.21 39.8 14.77 39.91 15.35 39.13C19.09 34.12 23.46 29.83 28.41 26.16C25.83 29.25 23.25 32.29 21.61 36.11C21.12 37.24 22.36 38.26 23.33 37.41C25.33 35.66 27.28 33.86 29.28 32.12C29.18 32.42 29.08 32.71 28.98 33.01C28.9 33.15 28.87 33.28 28.86 33.41C27.1 37.2 27.1 41.79 28.93 46.02C32.58 54.47 42.61 54.57 49.4 50.14C49.56 50.67 50.24 50.99 50.77 50.9C54.09 50.32 56.67 48.5 58.88 46.2C56.61 51.03 52.84 54.89 48.55 58.41C47.72 59.09 48.61 60.59 49.61 60.22C56.4 57.7 61.81 53.08 66.13 47.47C63.22 55.56 57.3 62.54 50.88 68.11C49.95 68.92 51.22 70.55 52.21 69.81C56.72 66.44 61.67 63.35 65.62 59.35C65.07 60.54 64.5 61.72 63.91 62.9C63.41 63.9 64.42 64.87 65.41 64.38C65.43 64.37 65.45 64.36 65.47 64.35C61.57 68.69 56.61 72.08 51.02 74.13L51.03 74.09ZM48.62 48.1C42.6 52.69 34.33 51.87 30.84 44.91C28.18 39.62 29.94 33.49 34.34 30.1C34.82 30.42 35.54 30.43 35.94 29.81C42.5 19.91 60.22 39.27 48.62 48.1Z" fill="white"/>
<path d="M45.53 34.08C43.38 31.22 40.33 31.35 38.36 33.71C36.12 35.6 35.22 38.87 35.95 41.78C37.07 46.23 42.5 46.51 45.56 43.91C48.43 41.47 47.53 36.74 45.53 34.08ZM44.24 42.14C42.3 44.39 38.7 43.73 37.97 40.88C37.62 39.47 37.93 37.83 38.73 36.54C39 36.49 39.25 36.33 39.42 36.01C39.58 35.72 39.74 35.46 39.91 35.23C40.27 34.96 40.65 34.72 41.08 34.58C41.35 34.49 41.53 34.32 41.65 34.13C42.43 34.09 43.24 34.6 44 35.7C45.24 37.51 45.78 40.35 44.24 42.14Z" fill="white"/>
</g>
<defs>
<clipPath id="clip0_1_36">
<rect width="77.62" height="78.05" fill="white"/>
</clipPath>
</defs>
</svg>
